<?xml version="1.0" standalone="no"?>
<!DOCTYPE svg PUBLIC "-//W3C//DTD SVG 20010904//EN"
 "http://www.w3.org/TR/2001/REC-SVG-20010904/DTD/svg10.dtd">
<svg version="1.0" xmlns="http://www.w3.org/2000/svg"
 width="700.000000pt" height="700.000000pt" viewBox="0 0 700.000000 700.000000"
 preserveAspectRatio="xMidYMid meet">
<metadata>
Created by potrace 1.14, written by Peter Selinger 2001-2017
</metadata>
<g transform="translate(0.000000,700.000000) scale(0.100000,-0.100000)"
fill="#000000" stroke="none">
<path d="M405 6986 c-153 -37 -277 -134 -344 -268 -22 -46 -44 -96 -48 -113
-4 -16 -9 -1405 -10 -3085 -3 -3360 -7 -3112 58 -3242 64 -127 215 -240 354
-267 68 -14 6102 -14 6170 0 189 36 355 198 400 391 22 94 22 6087 0 6191 -37
174 -156 307 -347 384 -41 17 -209 18 -3113 20 -2400 1 -3081 -1 -3120 -11z"/>
</g>
</svg>
