<?xml version="1.0" standalone="no"?>
<!DOCTYPE svg PUBLIC "-//W3C//DTD SVG 20010904//EN"
 "http://www.w3.org/TR/2001/REC-SVG-20010904/DTD/svg10.dtd">
<svg version="1.0" xmlns="http://www.w3.org/2000/svg"
 width="700.000000pt" height="700.000000pt" viewBox="0 0 700.000000 700.000000"
 preserveAspectRatio="xMidYMid meet">
<metadata>
Created by potrace 1.14, written by Peter Selinger 2001-2017
</metadata>
<g transform="translate(0.000000,700.000000) scale(0.100000,-0.100000)"
fill="#000000" stroke="none">
<path d="M435 6993 c-180 -40 -300 -129 -374 -275 -22 -46 -44 -96 -48 -113
-4 -16 -9 -1411 -10 -3100 l-2 -3070 23 -72 c56 -173 194 -302 371 -349 68
-18 6113 -21 6197 -3 188 40 342 189 393 379 21 81 22 6100 1 6201 -38 178
-155 308 -348 386 -41 17 -210 18 -3113 19 -1689 1 -3079 0 -3090 -3z"/>
</g>
</svg>
